<?xml version="1.0" encoding="utf-8"?>
<!-- Generator: Adobe Illustrator 27.5.0, SVG Export Plug-In . SVG Version: 6.00 Build 0)  -->
<svg version="1.1" xmlns="http://www.w3.org/2000/svg" xmlns:xlink="http://www.w3.org/1999/xlink" x="0px" y="0px"
	 viewBox="0 0 2164 1848.478" style="enable-background:new 0 0 2164 1848.478;" xml:space="preserve">
<g id="Bg">
	<rect style="opacity:0;fill:#FFFFFF;" width="2164" height="1848.48"/>
</g>
<g id="Layer_1">
	<g>
		<path style="fill:#FFFFFF;" d="M1658.38,1144.723c9.879,1.535,13.903,5.435,14.226,4.94l-40.906,88.116
			c-1.359,2.92-12.949,8.693-28.158,6.37c-102.89-15.911-87.613-16.466-94.79-7.436c-25.876,32.445-51.4,52.804-76.413,73.181
			c34.344,19.822,77.644,46.348,80.745,46.675c-2.62,3.145-31.882,19.026-114.856,66.917
			c-22.431,13.009-39.817-2.387-101.554-38.049c-53.314,21.909-84.753,30.782-129.037,42.568l28.991,60.971
			c-3.093,6.359-13.91,6.313-166.894,29.998c-15.359,2.387-26.845-3.453-28.189-6.351l-25.922-55.904
			c-176.698,9.489-130.538-25.592-168.373,55.881c-6.186,13.257-36.822,5.033-180.804-17.251
			c-9.864-1.539-13.872-5.247-14.256-4.947l28.969-62.42c-168.575-44.632-97.26-60.874-194.91-4.497
			c-24.097,13.978-42.572-3.975-147.444-64.507c-5.412-3.127-10.997,2.087,77.63-49.065c-32.798-26.717-50.567-40.883-81.48-79.633
			c-80.384,12.432-112.124,19.86-117.837,7.522l-40.927-86.728c0.405-0.893,4.241-4.816,14.255-6.351
			c110.307-17.101,96.674-9.222,93.544-28.909c-16.23-102.244,48.57-74.431-93.566-96.468c-9.887-1.535-13.79-5.454-14.211-4.943
			l40.905-88.113c10.187-22.171,109.203,18.313,122.964,1.066c25.839-32.445,51.505-52.898,76.398-73.181
			c-30.26-17.469-77.659-46.678-80.745-46.678c2.62-3.146,31.867-19.015,114.834-66.917c22.513-13.062,40.402,2.725,101.553,38.053
			c9.586-3.934,18.271-7.327,26.627-10.51c6.096,15.003,23.707,51.797,74.461,161.17c6.051,13.017,18.369,23.71,34.149,31.518v0.571
			c2.012,0.78,3.723,1.216,5.66,1.918c10.104,4.32,21.342,7.436,33.376,9.237c0.3,0.052,0.608,0.09,0.916,0.139
			c4.474,0.642,8.986,1.122,13.625,1.382c2.995,0.191,6.058,0.262,9.061,0.281c2.41-0.004,4.79,0.007,7.222-0.102
			c19.075-0.709,39.419-4.297,66.519-8.929c-26.364,9.428-47.872,21.571-64.484,35.504c-1.449,1.186-2.785,2.421-4.167,3.641
			c-3.784,3.412-7.274,6.91-10.502,10.502c-3.213,3.51-6.058,7.173-8.776,10.919c-1.772,2.485-3.536,4.969-5.059,7.507
			c-1.862,3.074-3.574,6.186-5.075,9.399c-2.147,4.557-3.964,9.159-5.345,13.813c-0.691,2.409-1.141,4.894-1.636,7.368
			c-1.066,5.116-1.749,10.251-1.907,15.408c-0.03,0.946-0.345,1.802-0.345,2.751c0,3.438,0.54,6.662,0.878,9.966
			c0.12,1.043,0.12,2.094,0.278,3.138c4.354,31.574,24.127,56.805,52.083,76.075c6.358,4.527,13.189,8.858,20.689,12.889
			c17.295,12.709,52.406,24.379,95.533,30.283c20.006,3.273,39.907,4.925,58.494,4.925c1.396,0,2.657-0.173,4.039-0.188
			c3.423,0.064,6.659,0.271,10.149,0.271v-0.739c80.294-2.782,141.836-28.02,177.839-62.796
			c64.958,10.686,112.394,18.426,148.082,21.522c2.845,0.259,5.645,0.507,8.505,0.672c41.716,2.868,66.482-1.569,85.211-16.568
			c10.78-6.749,19.638-15.535,25.088-27.265c3.491-7.522,6.006-13.471,8.122-18.527c2.928-5.713,5.931-11.898,9.031-18.516
			c1.869-2.271,4.046-3.618,7.131-4.501c16.192-1.396,30.088-2.879,42.407-4.391c1.771-0.199,3.641-0.435,5.548-0.668
			c2.905-0.375,5.743-0.739,8.446-1.115c3.731-0.51,7.709-1.107,11.928-1.764c3.926-0.612,7.605-1.201,11.051-1.798
			c2.545-0.435,5.157-0.905,7.867-1.396c2.74-0.511,5.292-0.999,7.717-1.486c10.675-2.042,22.453-4.497,35.65-7.492
			c4.857-0.563,8.738-0.165,13.317,1.592c10.525,6.238,22.484,13.55,35.621,20.614
			C1563.492,1141.397,1544.2,1127.022,1658.38,1144.723z M2025.041,528.945c-14.376,26.834-68.591,29.127-143.72,40.755
			c-32.017,143.284-102.709,76.319,24.698,149.876c53.284,30.797,0.323,45.957-202.027,162.788c-29.3,16.913-78.913,16.913-108.25,0
			c-110.885-64.019-14.616-29.074-233.09-12.826l-26.056,56.137c-8.476,18.234-47.91,33.958-91.007,27.292
			c-372.989-57.706-349.575-34.168-297.875-145.62c-51.363-22.686-82.847-38.683-128.699-73.327
			c-51.888,8.032-158.997,34.284-181.045-13.355c-95.631-206.05-124.037-184.982,70.279-215.066
			c31.965-143.296,102.778-76.278-24.69-149.876c-23.849-13.752-24.728-31.867-0.022-46.145l202.049-116.639
			c29.337-16.958,78.958-16.939,108.25,0c110.817,64.001,14.391,29.093,233.09,12.826l26.049-56.137
			c8.483-18.257,47.977-33.969,90.991-27.302c373.049,57.713,349.59,34.171,297.898,145.604
			c51.655,22.821,83.207,38.972,128.676,73.328c51.521-7.969,159.005-34.157,181.06,13.359
			C2032.075,528.006,2030.604,518.611,2025.041,528.945z M1480.826,422.046c-49.268-28.444-110.502-42.317-171.864-43.972v-0.536
			c-12.086,0-23.752,0.36-35.065,0.998c-9.091,0.451-18.054,1.291-27.018,2.267c-2.117,0.225-4.257,0.436-6.344,0.683
			c-6.898,0.852-13.7,1.817-20.464,2.976c-8.07,1.318-15.817,2.849-23.377,4.512c-1.366,0.315-2.777,0.551-4.136,0.878
			c-50.672,11.692-89.558,30.973-116.808,54.406c-0.158,0.135-0.3,0.27-0.45,0.402c-6.366,5.51-12.146,11.211-17.229,17.127
			c-1.704,1.929-3.281,3.903-4.849,5.893c-3.513,4.557-6.659,9.196-9.437,13.918c-1.952,3.266-3.738,6.576-5.345,9.977
			c-2.462,5.225-4.571,10.506-6.163,15.847c-0.954,3.228-1.569,6.546-2.215,9.872c-0.976,4.913-1.584,9.838-1.847,14.781
			c-0.098,1.937-0.706,3.716-0.706,5.683c0,40.676,21.41,73.163,54.027,97.973c0.143,0.109,0.256,0.222,0.398,0.33
			c0.75,0.57,1.562,1.096,2.327,1.655c31.897,24.39,77.382,43.514,136.318,53.13c25.381,4.474,50.709,6.809,74.191,6.809
			c1.411,0,2.687-0.177,4.091-0.188c3.408,0.053,6.629,0.271,10.097,0.271v-0.694c6.643-0.203,13.272-0.447,19.818-0.942
			C1549.019,680.42,1642.48,515.327,1480.826,422.046z"/>
		<path style="fill:#150035;" d="M2054.753,709.115c0.232-12.878,0.232-31.806,0.172-60.089c0.323-57.308,0.864-89.07-0.172-107.139
			c0-2.909-0.008-5.405-0.008-8.4c0-0.848-0.052-1.61-0.105-2.38c2.177-9.049,1.412-18.835-3.348-29.089l-73.951-159.335
			c-15.111-32.486-68.26-51.501-121.071-43.397c-117.356,18.182-47.361,19.007-154.785-34.945c0.473-27.31,0.45-46.43-1.599-58.876
			c5.42-34.194-32.107-61.745-75.595-68.482l-275.977-42.696c-52.789-8.093-105.968,10.888-121.071,43.398
			c-32.062,69.097,9.428,23.061-162.638,63.373c-43.563-25.167-115.577-77.517-193.206-32.685
			C671.572,283.731,636.905,291.846,636.905,332.631c0,2.035,0.45,3.754,0.653,5.638c-2.883,20.055-2.117,62.056-2.793,150.229
			c-7.222,0.991-15.096,2.109-24.577,3.573c-44.471,6.888-81.976,34.978-75.204,69.844c-0.586,22.619,0.03,70.783,0.052,177.794
			c-28.346,10.645-22.708,6.291-74.596-23.669c-42.339-24.54-75.722,6.734-175.782,64.485c-7.372,4.249-12.131,9.872-14.834,15.918
			c-0.21,0.364-0.398,0.807-0.57,1.258c-1.577,4.046-2.102,8.212-1.629,12.39c-0.488,13.367,0.113,38.897,0.308,90.537
			c-44.869-8.182-100.525-20.802-116.553,13.715c-28.924,62.322-47.324,92.891-41.889,110.494
			c-0.615,17.296-0.518,51.359-0.33,118.505c-1.306,4.744-1.269,9.579,0.045,14.21c0.135,47.984,0.293,111.283,0.293,194.843
			c-3.033,11.403-0.999,11.226,42.969,105.945c9.849,21.154,32.535,24.247,61.114,21.59c0.555-0.03,1.014,0.218,1.584,0.142
			c5.413-0.841,10.314-1.532,15.081-2.192c0.946-0.139,1.914-0.274,2.875-0.417c15.457-2.11,27.348-3.45,36.649-4.94
			c-7.545,105.994,1.509,111.267,8.858,115.475c74.626,43.097,108.978,66.868,133.961,74.627c0,0.57,0,1.084,0,1.659
			c2.68,0.135,5.12,0.255,7.402,0.36c7.087,1.37,13.625,1.16,20.397-0.308c10.074-1.501,19.158-6.103,38.908-17.694
			c10.059-5.818,21.657-12.785,36.048-21.087c58.059,23.028,69.199,19.331,70.941,30.062v35.143
			c-4.864,16.185,6.141,36.431,36.882,41.187c205.472,31.796,191.269,43.424,228.759-37.324
			c130.831,5.799,98.934-17.586,124.976,38.499c19.262,41.607,96.291,16.561,210.869-1.175c34.817-5.36,38.465-22.907,38.285-52.199
			c0.022-8.855-0.345-18.926-0.413-30.066c25.906-7.86,48.93-15.825,69.942-24.15c103.28,59.643,71.549,57.856,236.754-37.535
			c5.826-3.355,12.251-7.117,12.004-66.676c-0.008-13.31-0.368-29.563-1.164-49.396c51.122,7.912,99.534,20.377,115.321-13.629
			c34.697-74.784,43.255-65.498,44.081-152.44c0.45-38.856-0.766-97.706-1.87-193.502c6.111-2.406,12.251-5.169,18.445-8.75
			c118.46-68.396,178.237-94.711,208.002-120.891c21.35-14.136,19.578-17.461,20.945-28.151c2.245-5.443,3.904-11.294,5.029-17.836
			c0.113-0.267,0.188-0.495,0.308-0.766v-1.178c4.601-29.765,0-73.174,0-150.679c15.337-2.38,58.073-4.992,84.19-28.609
			c5.397-4.392,9.714-9.466,12.807-15.277c1.336-1.974,2.297-4.028,2.98-8.078c1.899-6.583,2.837-13.708,1.329-22.108
			C2054.746,709.704,2054.753,709.441,2054.753,709.115z M664.786,376.907c13.385,9.282,31.026,18.624,52.796,31.202
			c-45.387,70.434-14.586,71.125-53.945,76.537C663.907,458.688,664.222,423.878,664.786,376.907z M563.555,627.71l48.674,104.883
			c6.164,13.287,18.888,24.146,35.133,31.995v162.78c-3.716-3.168-6.786-6.501-8.408-10.007l-73.974-159.35
			C563.059,753.867,563.434,761.554,563.555,627.71z M193.771,1452.594c-8.49-0.282-13.647-2.053-15.592-6.205
			c-42.519-90.466-42.954-49.703-41.296-227.902l14.496,31.244c6.141,13.258,23.159,21.755,42.602,22.889
			C192.232,1301.017,193.681,1347.294,193.771,1452.594z M412.613,1632.081c-19.465-8.817-51.595-29.243-115.937-66.406
			c-4.001-22.603,2.38-104.594,4.242-127.595c-0.346,0.052-0.616,0.101-0.961,0.154c-0.165-11.181-1.396-26.135-2.522-46.982
			c18.932,11.455,49.418,28.196,98.942,56.782c5.458,3.161,10.825,5.172,16.147,6.516
			C413.378,1479.333,412.733,1523.642,412.613,1632.081z M586.458,1478.473c-3.138,6.786-3.183,14.485-0.173,21.646v119.855
			c-30.23-9.86-47.136-17.157-58.374-20.933c0.083-100.225,0.803-146.963,0-177.013c23.797,9.031,48.232,17.394,73.35,24.551
			L586.458,1478.473z M763.299,1724.926c-207.987-32.22-133.166-21.492-148.352-37.614v-165.64c2.327,0.612,4.549,1.307,7.146,1.712
			c61.752,9.556,107.574,18.981,141.205,22.337V1724.926z M1021.019,1725.816h-28.384v-172.862h28.384V1725.816z M1385.601,1636.018
			h-28.384v-172.862h28.384V1636.018z M1631.618,1452.545h-28.376v-172.862h28.376V1452.545z M1631.7,1237.779
			c-1.359,2.92-12.949,8.693-28.158,6.37c-102.89-15.911-87.613-16.466-94.79-7.436c-25.876,32.445-51.4,52.804-76.413,73.181
			c34.344,19.822,77.644,46.348,80.745,46.675c-2.62,3.145-31.882,19.026-114.856,66.917
			c-22.431,13.009-39.817-2.387-101.554-38.049c-53.314,21.909-84.753,30.782-129.037,42.568l28.991,60.971
			c-3.093,6.359-13.91,6.313-166.894,29.998c-15.359,2.387-26.845-3.453-28.189-6.351l-25.922-55.904
			c-176.698,9.489-130.538-25.592-168.373,55.881c-6.186,13.257-36.822,5.033-180.804-17.251
			c-9.864-1.539-13.872-5.247-14.256-4.947l28.969-62.42c-168.575-44.632-97.26-60.874-194.91-4.497
			c-24.097,13.978-42.572-3.975-147.444-64.507c-5.412-3.127-10.997,2.087,77.63-49.065c-32.798-26.717-50.567-40.883-81.48-79.633
			c-80.384,12.432-112.124,19.86-117.837,7.522l-40.927-86.728c0.405-0.893,4.241-4.816,14.255-6.351
			c110.307-17.101,96.674-9.222,93.544-28.909c-16.23-102.244,48.57-74.431-93.566-96.468c-9.887-1.535-13.79-5.454-14.211-4.943
			l40.905-88.113c10.187-22.171,109.203,18.313,122.964,1.066c25.839-32.445,51.505-52.898,76.398-73.181
			c-30.26-17.469-77.659-46.678-80.745-46.678c2.62-3.146,31.867-19.015,114.834-66.917c22.513-13.062,40.402,2.725,101.553,38.053
			c9.586-3.934,18.271-7.327,26.627-10.51c6.096,15.003,23.707,51.797,74.461,161.17c6.051,13.017,18.369,23.71,34.149,31.518v0.571
			c2.012,0.78,3.723,1.216,5.66,1.918c10.104,4.32,21.342,7.436,33.376,9.237c0.3,0.052,0.608,0.09,0.916,0.139
			c4.474,0.642,8.986,1.122,13.625,1.382c2.995,0.191,6.058,0.262,9.061,0.281c2.41-0.004,4.79,0.007,7.222-0.102
			c19.075-0.709,39.419-4.297,66.519-8.929c-26.364,9.428-47.872,21.571-64.484,35.504c-1.449,1.186-2.785,2.421-4.167,3.641
			c-3.784,3.412-7.274,6.91-10.502,10.502c-3.213,3.51-6.058,7.173-8.776,10.919c-1.772,2.485-3.536,4.969-5.059,7.507
			c-1.862,3.074-3.574,6.186-5.075,9.399c-2.147,4.557-3.964,9.159-5.345,13.813c-0.691,2.409-1.141,4.894-1.636,7.368
			c-1.066,5.116-1.749,10.251-1.907,15.408c-0.03,0.946-0.345,1.802-0.345,2.751c0,3.438,0.54,6.662,0.878,9.966
			c0.12,1.043,0.12,2.094,0.278,3.138c4.354,31.574,24.127,56.805,52.083,76.075c6.358,4.527,13.189,8.858,20.689,12.889
			c17.295,12.709,52.406,24.379,95.533,30.283c20.006,3.273,39.907,4.925,58.494,4.925c1.396,0,2.657-0.173,4.039-0.188
			c3.423,0.064,6.659,0.271,10.149,0.271v-0.739c80.294-2.782,141.836-28.02,177.839-62.796
			c64.958,10.686,112.394,18.426,148.082,21.522c2.845,0.259,5.645,0.507,8.505,0.672c41.716,2.868,66.482-1.569,85.211-16.568
			c10.78-6.749,19.638-15.535,25.088-27.265c3.491-7.522,6.006-13.471,8.122-18.527c2.928-5.713,5.931-11.898,9.031-18.516
			c1.869-2.271,4.046-3.618,7.131-4.501c16.192-1.396,30.088-2.879,42.407-4.391c1.771-0.199,3.641-0.435,5.548-0.668
			c2.905-0.375,5.743-0.739,8.446-1.115c3.731-0.51,7.709-1.107,11.928-1.764c3.926-0.612,7.605-1.201,11.051-1.798
			c2.545-0.435,5.157-0.905,7.867-1.396c2.74-0.511,5.292-0.999,7.717-1.486c10.675-2.042,22.453-4.497,35.65-7.492
			c4.857-0.563,8.738-0.165,13.317,1.592c10.525,6.238,22.484,13.55,35.621,20.614c-3.656,46.543-22.949,32.167,91.232,49.869
			c9.879,1.535,13.903,5.435,14.226,4.94L1631.7,1237.779z M214.168,1106.16l-68.043,10.525c-3.078,0.477-5.78,1.246-8.475,2.019
			c0.12-22.607,0.203-47.481,0.233-74.656c16.868,4.707,41.663,8.505,76.286,13.857
			C212.568,1073.97,212.568,1090.099,214.168,1106.16z M296.473,888.542V840.73l30.583,17.664
			C315.961,868.206,305.962,878.317,296.473,888.542z M890.616,887.262v89.01c-35.268-18.778-49.711-30.703-59.005-37.463
			c0.556-27.971,0.12-77.408-0.27-161.219c12.446,8.933,33.556,23.009,78.552,43.908l-16.53,35.598
			C888.425,867.732,888.004,877.874,890.616,887.262z M837.4,980.404v143.994h-28.383V980.404H837.4z M1026.004,1167.514
			c-71.309,31.086-170.009,31.597-242.271,1.217C855.034,1137.584,953.764,1137.096,1026.004,1167.514z M918.587,1117.758v-0.191
			c0.105,0.063,0.21,0.127,0.308,0.191C918.797,1117.758,918.692,1117.758,918.587,1117.758z M919.165,996.536V921.49
			c13.032,8.182,29.021,14.173,46.1,16.816c163.125,25.238,232.294,36.191,264.484,40.943v167.84
			c-263.261-40.444-301.891-40.11-310.584-69.762v-44.329C919.353,1013.27,919.548,1002.519,919.165,996.536z M1059.215,1149.835
			c-0.564,0.383-1.134,0.766-1.704,1.149c-0.878-0.601-1.411-1.216-2.365-1.813C1056.535,1149.4,1057.833,1149.61,1059.215,1149.835
			z M1363.628,1060.638V903.39h28.383v157.248H1363.628z M1674.738,1087.01h-28.376V929.762h28.376V1087.01z M1957.125,720.319
			h-28.376V587.792h28.376V720.319z M2025.041,528.945c-14.376,26.834-68.591,29.127-143.72,40.755
			c-32.017,143.284-102.709,76.319,24.698,149.876c53.284,30.797,0.323,45.957-202.027,162.788c-29.3,16.913-78.913,16.913-108.25,0
			c-110.885-64.019-14.616-29.074-233.09-12.826l-26.056,56.137c-8.476,18.234-47.91,33.958-91.007,27.292
			c-372.989-57.706-349.575-34.168-297.875-145.62c-51.363-22.686-82.847-38.683-128.699-73.327
			c-51.888,8.032-158.997,34.284-181.045-13.355c-95.631-206.05-124.037-184.982,70.279-215.066
			c31.965-143.296,102.778-76.278-24.69-149.876c-23.849-13.752-24.728-31.867-0.022-46.145l202.049-116.639
			c29.337-16.958,78.958-16.939,108.25,0c110.817,64.001,14.391,29.093,233.09,12.826l26.049-56.137
			c8.483-18.257,47.977-33.969,90.991-27.302c373.049,57.713,349.59,34.171,297.898,145.604
			c51.655,22.821,83.207,38.972,128.676,73.328c51.521-7.969,159.005-34.157,181.06,13.359
			C2032.075,528.006,2030.604,518.611,2025.041,528.945z M1480.826,422.046c-49.268-28.444-110.502-42.317-171.864-43.972v-0.536
			c-12.086,0-23.752,0.36-35.065,0.998c-9.091,0.451-18.054,1.291-27.018,2.267c-2.117,0.225-4.257,0.436-6.344,0.683
			c-6.898,0.852-13.7,1.817-20.464,2.976c-8.07,1.318-15.817,2.849-23.377,4.512c-1.366,0.315-2.777,0.551-4.136,0.878
			c-50.672,11.692-89.558,30.973-116.808,54.406c-0.158,0.135-0.3,0.27-0.45,0.402c-6.366,5.51-12.146,11.211-17.229,17.127
			c-1.704,1.929-3.281,3.903-4.849,5.893c-3.513,4.557-6.659,9.196-9.437,13.918c-1.952,3.266-3.738,6.576-5.345,9.977
			c-2.462,5.225-4.571,10.506-6.163,15.847c-0.954,3.228-1.569,6.546-2.215,9.872c-0.976,4.913-1.584,9.838-1.847,14.781
			c-0.098,1.937-0.706,3.716-0.706,5.683c0,40.676,21.41,73.163,54.027,97.973c0.143,0.109,0.256,0.222,0.398,0.33
			c0.75,0.57,1.562,1.096,2.327,1.655c31.897,24.39,77.382,43.514,136.318,53.13c25.381,4.474,50.709,6.809,74.191,6.809
			c1.411,0,2.687-0.177,4.091-0.188c3.408,0.053,6.629,0.271,10.097,0.271v-0.694c6.643-0.203,13.272-0.447,19.818-0.942
			C1549.019,680.42,1642.48,515.327,1480.826,422.046z M1184.468,417.332h28.376v170.459h-28.376V417.332z M1145.477,640.325
			c87.178-40.305,211.32-40.924,299.729-1.532C1358.005,679.057,1233.848,679.654,1145.477,640.325z M1477.013,621.738
			c-26.732-19.54-92.891-37.647-168.05-39.325V406.176C1496.951,412.313,1606.387,537.09,1477.013,621.738z"/>
		<path style="fill:#39A1FF;" d="M992.635,1552.953h28.384v172.862h-28.384V1552.953z M527.912,1599.042
			c11.238,3.776,28.144,11.073,58.374,20.933V1500.12c-3.01-7.162-2.965-14.86,0.173-21.646l14.803-31.893
			c-25.118-7.158-49.553-15.521-73.35-24.551C528.715,1452.079,527.994,1498.818,527.912,1599.042z M1603.242,1452.545h28.376
			v-172.862h-28.376V1452.545z M1357.217,1636.018h28.384v-172.862h-28.384V1636.018z M614.947,1521.672v165.64
			c15.186,16.121-59.635,5.394,148.352,37.614V1545.72c-33.631-3.355-79.453-12.781-141.205-22.337
			C619.496,1522.979,617.274,1522.284,614.947,1521.672z M638.954,917.361c1.621,3.506,4.692,6.839,8.408,10.007v-162.78
			c-16.245-7.849-28.969-18.707-35.133-31.995L563.555,627.71c-0.121,133.845-0.495,126.158,1.426,130.301L638.954,917.361z
			 M396.376,1448.033c-49.523-28.586-80.009-45.327-98.942-56.782c1.126,20.847,2.358,35.8,2.522,46.982
			c0.345-0.052,0.615-0.101,0.961-0.154c-1.862,23.001-8.243,104.992-4.242,127.595c64.342,37.163,96.472,57.589,115.937,66.406
			c0.12-108.438,0.766-152.747-0.09-177.532C407.2,1453.205,401.833,1451.193,396.376,1448.033z M717.582,408.11
			c-21.77-12.578-39.412-21.92-52.796-31.202c-0.563,46.971-0.879,81.78-1.149,107.739
			C702.996,479.234,672.195,478.543,717.582,408.11z M151.379,1249.73l-14.496-31.244c-1.659,178.2-1.223,137.437,41.296,227.902
			c1.945,4.152,7.102,5.923,15.592,6.205c-0.09-105.3-1.539-151.577,0.21-179.975C174.538,1271.485,157.52,1262.987,151.379,1249.73
			z M1212.844,417.332h-28.376v170.459h28.376V417.332z M1646.362,1087.01h28.376V929.762h-28.376V1087.01z M1363.628,1060.638
			h28.383V903.39h-28.383V1060.638z M1057.51,1150.984c0.571-0.383,1.141-0.766,1.704-1.149c-1.382-0.225-2.68-0.435-4.069-0.664
			C1056.099,1149.768,1056.632,1150.383,1057.51,1150.984z M1928.749,587.792v132.527h28.376V587.792H1928.749z M1145.477,640.325
			c88.372,39.329,212.529,38.732,299.729-1.532C1356.796,599.401,1232.655,600.021,1145.477,640.325z M137.882,1044.048
			c-0.03,27.175-0.113,52.049-0.233,74.656c2.695-0.773,5.397-1.542,8.475-2.019l68.043-10.525c-1.599-16.061-1.599-32.189,0-48.255
			C179.545,1052.553,154.75,1048.755,137.882,1044.048z M1308.963,406.176v176.237c75.159,1.678,141.318,19.785,168.05,39.325
			C1606.387,537.09,1496.951,412.313,1308.963,406.176z M918.587,1117.567v0.191c0.105,0,0.21,0,0.308,0
			C918.797,1117.694,918.692,1117.63,918.587,1117.567z M919.165,921.49v75.047c0.383,5.983,0.187,16.733,0,36.461v44.329
			c8.693,29.652,47.324,29.318,310.584,69.762v-167.84c-32.19-4.752-101.359-15.705-264.484-40.943
			C948.187,935.662,932.197,929.672,919.165,921.49z M837.4,980.404h-28.383v143.994H837.4V980.404z M296.473,840.73v47.812
			c9.489-10.225,19.488-20.336,30.583-30.148L296.473,840.73z M831.612,938.808c9.294,6.76,23.737,18.685,59.005,37.463v-89.01
			c-2.612-9.387-2.192-19.529,2.748-30.166l16.53-35.598c-44.996-20.899-66.106-34.975-78.552-43.908
			C831.732,861.4,832.167,910.838,831.612,938.808z M783.733,1168.73c72.262,30.38,170.962,29.87,242.271-1.217
			C953.764,1137.096,855.034,1137.584,783.733,1168.73z"/>
	</g>
</g>
</svg>
